<svg xmlns="http://www.w3.org/2000/svg" viewBox="0 0 64 64" fill="none">
  <!-- Deep space circle bg -->
  <circle cx="32" cy="32" r="30" fill="#0B0E1A" />
  
  <!-- Outer subtle atmosphere aura -->
  <circle cx="32" cy="32" r="23" fill="#6EC8D4" fill-opacity="0.25" />
  <circle cx="32" cy="32" r="19" fill="#FFD475" fill-opacity="0.2" />

  <!-- Planet Ocean Core -->
  <circle cx="32" cy="32" r="16" fill="#2A7A8A" />
  <circle cx="30" cy="30" r="14" fill="#6EC8D4" />

  <!-- Island patch (green clay/patch-grass) -->
  <path d="M25 28C23 25 28 20 33 22C37 23 39 28 35 32C32 34 27 30 25 28Z" fill="#7EAB6E" />
  <circle cx="32" cy="25" r="2.5" fill="#5C8A4C" />

  <!-- Subtle orbital ring -->
  <ellipse cx="32" cy="32" rx="26" ry="7" transform="rotate(-25 32 32)" stroke="#FFF8E7" stroke-width="1.5" stroke-dasharray="2 3" stroke-opacity="0.8" />

  <!-- Astral Spark ✧ -->
  <circle cx="46" cy="18" r="1.5" fill="#FFD475" />
  <polygon points="46,14 47.5,17 50,18 47.5,19 46,22 44.5,19 42,18 44.5,17" fill="#FFF4CC" />
</svg>